<?xml version="1.0" encoding="utf-8"?>
<!-- Generator: Adobe Illustrator 17.0.0, SVG Export Plug-In . SVG Version: 6.00 Build 0)  -->
<!DOCTYPE svg PUBLIC "-//W3C//DTD SVG 1.1//EN" "http://www.w3.org/Graphics/SVG/1.1/DTD/svg11.dtd">
<svg version="1.1" id="Layer_1" xmlns="http://www.w3.org/2000/svg" xmlns:xlink="http://www.w3.org/1999/xlink" x="0px" y="0px"
	 width="25.875px" height="22.5px" viewBox="0 0 25.875 22.5" enable-background="new 0 0 25.875 22.5" xml:space="preserve">
<path d="M25.875,2.666c-0.956,0.45-1.98,0.754-3.049,0.889c1.091-0.697,1.935-1.811,2.329-3.139
	c-1.024,0.653-2.16,1.125-3.364,1.384C20.824,0.686,19.44,0,17.91,0c-2.925,0-5.299,2.543-5.299,5.681
	c0,0.45,0.045,0.878,0.135,1.294C8.336,6.739,4.421,4.477,1.8,1.046C1.35,1.879,1.08,2.858,1.08,3.892
	c0,1.98,0.945,3.713,2.363,4.736c-0.866-0.034-1.688-0.292-2.408-0.72v0.079c0,2.745,1.834,5.04,4.264,5.569
	c-0.45,0.124-0.911,0.191-1.395,0.191c-0.349,0-0.675-0.034-1.001-0.101c0.675,2.261,2.632,3.904,4.961,3.949
	c-1.822,1.519-4.106,2.43-6.592,2.43c-0.439,0-0.855-0.022-1.271-0.079C2.351,21.555,5.141,22.5,8.134,22.5
	c9.765,0,15.109-8.651,15.109-16.155l-0.011-0.742C24.266,4.804,25.166,3.803,25.875,2.666z"/>
</svg>
